<svg xmlns="http://www.w3.org/2000/svg" xmlns:xlink="http://www.w3.org/1999/xlink" width="400" zoomAndPan="magnify" viewBox="0 0 300 299.999988" height="400" preserveAspectRatio="xMidYMid meet" version="1.0"><rect x="-30" width="360" fill="#ffffff" y="-29.999999" height="359.999986" fill-opacity="1"/><rect x="-30" width="360" fill="#1c1c1c" y="-29.999999" height="359.999986" fill-opacity="1"/><path fill="#1c1c1c" d="M 60 0.421875 C 119.398438 0.421875 178.800781 0.421875 240 0.421875 C 240 99.144531 240 197.863281 240 299.578125 C 180.601562 299.578125 121.199219 299.578125 60 299.578125 C 60 200.855469 60 102.136719 60 0.421875 Z M 60 0.421875 " fill-opacity="1" fill-rule="nonzero"/><path fill="#1d1d1d" d="M 113.160156 27.992188 C 114.085938 27.96875 115.007812 27.941406 115.960938 27.914062 C 122.730469 27.863281 122.730469 27.863281 125.839844 29.992188 C 128.332031 33.925781 128.605469 37.296875 128.59375 41.816406 C 128.59375 43.007812 128.59375 44.203125 128.59375 45.429688 C 128.585938 46.714844 128.582031 47.996094 128.574219 49.320312 C 128.574219 50.636719 128.570312 51.953125 128.570312 53.308594 C 128.5625 57.519531 128.546875 61.730469 128.53125 65.941406 C 128.523438 68.792969 128.519531 71.648438 128.511719 74.5 C 128.5 81.5 128.476562 88.496094 128.449219 95.492188 C 130.09375 95.183594 130.09375 95.183594 131.773438 94.871094 C 135.839844 94.257812 139.632812 94.0625 143.742188 94.058594 C 145.167969 94.054688 146.597656 94.054688 148.070312 94.050781 C 150.28125 94.058594 150.28125 94.058594 152.535156 94.066406 C 154.007812 94.0625 155.484375 94.058594 157 94.050781 C 158.429688 94.054688 159.859375 94.054688 161.328125 94.058594 C 162.621094 94.058594 163.914062 94.058594 165.246094 94.0625 C 169.125 94.230469 172.804688 94.777344 176.621094 95.492188 C 176.613281 94.722656 176.609375 93.953125 176.601562 93.160156 C 176.546875 85.160156 176.507812 77.164062 176.480469 69.164062 C 176.46875 66.179688 176.449219 63.191406 176.429688 60.203125 C 176.398438 55.914062 176.382812 51.628906 176.371094 47.339844 C 176.359375 46 176.347656 44.660156 176.332031 43.28125 C 176.332031 42.039062 176.332031 40.792969 176.332031 39.515625 C 176.328125 38.417969 176.320312 37.324219 176.316406 36.195312 C 176.621094 33.378906 176.621094 33.378906 179.15625 29.578125 C 183.660156 28.078125 187.777344 28.078125 192.464844 28.070312 C 193.75 28.050781 193.75 28.050781 195.0625 28.023438 C 199.769531 28.011719 201.757812 28.167969 205.773438 30.84375 C 209.4375 39.859375 210.503906 49.851562 211.636719 59.445312 C 211.789062 60.667969 211.945312 61.886719 212.101562 63.148438 C 212.550781 66.742188 212.980469 70.339844 213.378906 73.945312 C 213.539062 75.289062 213.539062 75.289062 213.703125 76.65625 C 214.664062 85.230469 214.871094 93.722656 214.90625 102.339844 C 214.914062 103.808594 214.917969 105.277344 214.925781 106.789062 C 214.9375 109.878906 214.949219 112.96875 214.953125 116.054688 C 214.964844 120.746094 215.003906 125.441406 215.042969 130.132812 C 215.050781 133.148438 215.058594 136.164062 215.0625 139.179688 C 215.078125 140.566406 215.09375 141.953125 215.109375 143.378906 C 215.078125 155.285156 213.632812 167.191406 205.773438 176.621094 C 200.074219 182.1875 194.128906 185.097656 186.761719 188.027344 C 194.371094 193.273438 202.109375 197.855469 210.332031 202.089844 C 213.378906 204.507812 213.378906 204.507812 214.578125 208.324219 C 214.675781 213.582031 213.015625 215.828125 209.578125 219.71875 C 204.410156 221.480469 201.421875 220.691406 196.503906 218.53125 C 195.386719 218.046875 194.265625 217.566406 193.113281 217.070312 C 192.273438 216.6875 191.429688 216.308594 190.5625 215.914062 C 190.835938 217.597656 190.835938 217.597656 191.117188 219.316406 C 193.824219 237.382812 195.5625 256.664062 189.296875 274.226562 C 185.070312 277.042969 183.472656 277.136719 178.519531 277.15625 C 177.304688 277.179688 176.089844 277.199219 174.835938 277.222656 C 171.550781 276.761719 171.550781 276.761719 169.304688 275.171875 C 167.503906 272.613281 166.867188 270.632812 166.242188 267.570312 C 166.039062 266.648438 165.839844 265.726562 165.632812 264.777344 C 165.109375 260.773438 165.210938 256.710938 165.210938 252.675781 C 156.84375 252.675781 148.480469 252.675781 139.859375 252.675781 C 139.703125 255.027344 139.546875 257.382812 139.382812 259.804688 C 138.472656 270.527344 138.472656 270.527344 136.054688 275.492188 C 130.195312 277.445312 124.421875 277.5625 118.308594 276.761719 C 113.125 271.890625 112.203125 262.367188 111.726562 255.460938 C 111.632812 251.625 111.625 247.796875 111.65625 243.960938 C 111.644531 242.679688 111.636719 241.394531 111.625 240.074219 C 111.648438 231.351562 112.660156 223.171875 114.507812 214.648438 C 113.574219 215.121094 112.640625 215.59375 111.679688 216.078125 C 109.824219 216.976562 109.824219 216.976562 107.929688 217.894531 C 106.710938 218.5 105.488281 219.101562 104.234375 219.722656 C 100.167969 221.121094 98.253906 221.078125 94.226562 219.71875 C 90.292969 215.929688 89.933594 212.300781 89.15625 207.042969 C 98.449219 200.140625 108.046875 194.589844 118.308594 189.296875 C 117.375 188.820312 116.445312 188.34375 115.484375 187.855469 C 103.464844 181.550781 96.132812 175.167969 91.453125 162.359375 C 83.867188 127.34375 88.5 83.980469 94.144531 49.066406 C 94.347656 47.820312 94.546875 46.574219 94.75 45.289062 C 95.800781 39.371094 96.773438 34.425781 100.5625 29.578125 C 104.550781 27.585938 108.789062 28.023438 113.160156 27.992188 Z M 113.160156 27.992188 " fill-opacity="1" fill-rule="nonzero"/><path fill="#d07ea0" d="M 113.160156 27.992188 C 114.085938 27.96875 115.007812 27.941406 115.960938 27.914062 C 122.730469 27.863281 122.730469 27.863281 125.839844 29.992188 C 128.332031 33.925781 128.605469 37.296875 128.59375 41.816406 C 128.59375 43.007812 128.59375 44.203125 128.59375 45.429688 C 128.585938 46.714844 128.582031 47.996094 128.574219 49.320312 C 128.574219 50.636719 128.570312 51.953125 128.570312 53.308594 C 128.5625 57.519531 128.546875 61.730469 128.53125 65.941406 C 128.523438 68.792969 128.519531 71.648438 128.511719 74.5 C 128.5 81.5 128.476562 88.496094 128.449219 95.492188 C 130.09375 95.183594 130.09375 95.183594 131.773438 94.871094 C 135.839844 94.257812 139.632812 94.0625 143.742188 94.058594 C 145.167969 94.054688 146.597656 94.054688 148.070312 94.050781 C 150.28125 94.058594 150.28125 94.058594 152.535156 94.066406 C 154.007812 94.0625 155.484375 94.058594 157 94.050781 C 158.429688 94.054688 159.859375 94.054688 161.328125 94.058594 C 162.621094 94.058594 163.914062 94.058594 165.246094 94.0625 C 169.125 94.230469 172.804688 94.777344 176.621094 95.492188 C 176.613281 94.722656 176.609375 93.953125 176.601562 93.160156 C 176.546875 85.160156 176.507812 77.164062 176.480469 69.164062 C 176.46875 66.179688 176.449219 63.191406 176.429688 60.203125 C 176.398438 55.914062 176.382812 51.628906 176.371094 47.339844 C 176.359375 46 176.347656 44.660156 176.332031 43.28125 C 176.332031 42.039062 176.332031 40.792969 176.332031 39.515625 C 176.328125 38.417969 176.320312 37.324219 176.316406 36.195312 C 176.621094 33.378906 176.621094 33.378906 179.15625 29.578125 C 183.660156 28.078125 187.777344 28.078125 192.464844 28.070312 C 193.75 28.050781 193.75 28.050781 195.0625 28.023438 C 199.769531 28.011719 201.757812 28.167969 205.773438 30.84375 C 209.4375 39.859375 210.503906 49.851562 211.636719 59.445312 C 211.789062 60.667969 211.945312 61.886719 212.101562 63.148438 C 212.550781 66.742188 212.980469 70.339844 213.378906 73.945312 C 213.539062 75.289062 213.539062 75.289062 213.703125 76.65625 C 214.664062 85.230469 214.871094 93.722656 214.90625 102.339844 C 214.914062 103.808594 214.917969 105.277344 214.925781 106.789062 C 214.9375 109.878906 214.949219 112.96875 214.953125 116.054688 C 214.964844 120.746094 215.003906 125.441406 215.042969 130.132812 C 215.050781 133.148438 215.058594 136.164062 215.0625 139.179688 C 215.078125 140.566406 215.09375 141.953125 215.109375 143.378906 C 215.078125 155.285156 213.632812 167.191406 205.773438 176.621094 C 200.074219 182.1875 194.128906 185.097656 186.761719 188.027344 C 194.371094 193.273438 202.109375 197.855469 210.332031 202.089844 C 213.378906 204.507812 213.378906 204.507812 214.578125 208.324219 C 214.675781 213.582031 213.015625 215.828125 209.578125 219.71875 C 204.410156 221.480469 201.421875 220.691406 196.503906 218.53125 C 195.386719 218.046875 194.265625 217.566406 193.113281 217.070312 C 192.273438 216.6875 191.429688 216.308594 190.5625 215.914062 C 190.835938 217.597656 190.835938 217.597656 191.117188 219.316406 C 193.824219 237.382812 195.5625 256.664062 189.296875 274.226562 C 185.070312 277.042969 183.472656 277.136719 178.519531 277.15625 C 177.304688 277.179688 176.089844 277.199219 174.835938 277.222656 C 171.550781 276.761719 171.550781 276.761719 169.304688 275.171875 C 167.503906 272.613281 166.867188 270.632812 166.242188 267.570312 C 166.039062 266.648438 165.839844 265.726562 165.632812 264.777344 C 165.109375 260.773438 165.210938 256.710938 165.210938 252.675781 C 156.84375 252.675781 148.480469 252.675781 139.859375 252.675781 C 139.703125 255.027344 139.546875 257.382812 139.382812 259.804688 C 138.472656 270.527344 138.472656 270.527344 136.054688 275.492188 C 130.195312 277.445312 124.421875 277.5625 118.308594 276.761719 C 113.125 271.890625 112.203125 262.367188 111.726562 255.460938 C 111.632812 251.625 111.625 247.796875 111.65625 243.960938 C 111.644531 242.679688 111.636719 241.394531 111.625 240.074219 C 111.648438 231.351562 112.660156 223.171875 114.507812 214.648438 C 113.574219 215.121094 112.640625 215.59375 111.679688 216.078125 C 109.824219 216.976562 109.824219 216.976562 107.929688 217.894531 C 106.710938 218.5 105.488281 219.101562 104.234375 219.722656 C 100.167969 221.121094 98.253906 221.078125 94.226562 219.71875 C 90.292969 215.929688 89.933594 212.300781 89.15625 207.042969 C 98.449219 200.140625 108.046875 194.589844 118.308594 189.296875 C 117.375 188.820312 116.445312 188.34375 115.484375 187.855469 C 103.464844 181.550781 96.132812 175.167969 91.453125 162.359375 C 83.867188 127.34375 88.5 83.980469 94.144531 49.066406 C 94.347656 47.820312 94.546875 46.574219 94.75 45.289062 C 95.800781 39.371094 96.773438 34.425781 100.5625 29.578125 C 104.550781 27.585938 108.789062 28.023438 113.160156 27.992188 Z M 103.097656 32.113281 C 99.550781 40.519531 97.960938 48.703125 96.601562 57.703125 C 96.386719 59.03125 96.175781 60.359375 95.953125 61.726562 C 93.09375 80.058594 92.6875 98.238281 92.652344 116.757812 C 92.640625 120.835938 92.601562 124.914062 92.5625 128.996094 C 91.816406 152.972656 91.816406 152.972656 101.433594 174.164062 C 108.660156 181.378906 115.816406 184.652344 125.914062 185.492188 C 125.589844 186.394531 125.265625 187.292969 124.929688 188.222656 C 121.53125 197.957031 119.199219 207.601562 117.359375 217.738281 C 117.078125 219.164062 116.800781 220.589844 116.511719 222.058594 C 113.992188 235.683594 113.429688 248.902344 116.328125 262.5 C 116.5 263.382812 116.671875 264.265625 116.847656 265.175781 C 117.433594 269.429688 117.433594 269.429688 119.578125 272.957031 C 121.925781 273.050781 124.277344 273.0625 126.628906 273.035156 C 127.910156 273.027344 129.195312 273.015625 130.515625 273.003906 C 131.507812 272.988281 132.5 272.972656 133.519531 272.957031 C 134.160156 269.65625 134.792969 266.355469 135.421875 263.054688 C 135.605469 262.117188 135.785156 261.183594 135.972656 260.21875 C 136.703125 256.378906 137.324219 252.792969 137.324219 248.875 C 138.351562 248.980469 139.378906 249.085938 140.4375 249.195312 C 149.75 250.050781 158.472656 250.082031 167.746094 248.875 C 167.808594 249.972656 167.871094 251.074219 167.933594 252.210938 C 168.03125 253.671875 168.125 255.132812 168.222656 256.636719 C 168.355469 258.800781 168.355469 258.800781 168.488281 261.003906 C 169.007812 265.292969 170.039062 268.921875 171.550781 272.957031 C 176.152344 272.957031 180.753906 272.957031 185.492188 272.957031 C 195.136719 244.03125 187.890625 213.695312 179.15625 185.492188 C 180.410156 185.386719 181.664062 185.285156 182.957031 185.175781 C 191.703125 183.867188 198.621094 179.914062 204.105469 172.976562 C 210.539062 162.589844 212.292969 150.972656 212.371094 138.96875 C 212.378906 138.027344 212.386719 137.085938 212.398438 136.113281 C 212.417969 133.03125 212.425781 129.949219 212.429688 126.867188 C 212.429688 125.808594 212.433594 124.75 212.433594 123.65625 C 212.429688 108.128906 211.832031 92.738281 210.449219 77.269531 C 210.375 76.410156 210.300781 75.550781 210.222656 74.667969 C 208.90625 52.644531 208.90625 52.644531 201.972656 32.113281 C 198.617188 32.078125 195.265625 32.054688 191.910156 32.035156 C 190.476562 32.015625 190.476562 32.015625 189.011719 32 C 186.570312 31.992188 184.128906 32.046875 181.691406 32.113281 C 180.125 33.394531 180.125 33.394531 180.269531 36.035156 C 180.273438 37.203125 180.277344 38.371094 180.277344 39.574219 C 180.277344 40.894531 180.277344 42.214844 180.277344 43.574219 C 180.285156 45.007812 180.292969 46.445312 180.296875 47.921875 C 180.300781 49.382812 180.300781 50.84375 180.304688 52.351562 C 180.3125 57.039062 180.328125 61.730469 180.34375 66.417969 C 180.351562 69.585938 180.355469 72.757812 180.359375 75.925781 C 180.375 83.714844 180.394531 91.507812 180.421875 99.296875 C 178.929688 99.089844 177.4375 98.882812 175.898438 98.671875 C 171.097656 98.074219 166.402344 97.863281 161.5625 97.859375 C 159.976562 97.859375 158.390625 97.855469 156.757812 97.855469 C 155.128906 97.859375 153.5 97.863281 151.820312 97.871094 C 149.371094 97.863281 149.371094 97.863281 146.875 97.855469 C 144.496094 97.855469 144.496094 97.855469 142.074219 97.859375 C 139.929688 97.863281 139.929688 97.863281 137.742188 97.863281 C 133.355469 98.035156 128.996094 98.675781 124.648438 99.296875 C 124.648438 77.542969 124.648438 55.792969 124.648438 33.378906 C 120.761719 31.4375 116.703125 31.980469 112.445312 32.035156 C 111.105469 32.042969 111.105469 32.042969 109.734375 32.050781 C 107.523438 32.066406 105.308594 32.089844 103.097656 32.113281 Z M 103.097656 32.113281 " fill-opacity="1" fill-rule="nonzero"/><path fill="#ce7d9f" d="M 113.160156 27.992188 C 114.085938 27.96875 115.007812 27.941406 115.960938 27.914062 C 122.730469 27.863281 122.730469 27.863281 125.839844 29.992188 C 128.332031 33.925781 128.605469 37.296875 128.59375 41.816406 C 128.59375 43.007812 128.59375 44.203125 128.59375 45.429688 C 128.585938 46.714844 128.582031 47.996094 128.574219 49.320312 C 128.574219 50.636719 128.570312 51.953125 128.570312 53.308594 C 128.5625 57.519531 128.546875 61.730469 128.53125 65.941406 C 128.523438 68.792969 128.519531 71.648438 128.511719 74.5 C 128.5 81.5 128.476562 88.496094 128.449219 95.492188 C 130.09375 95.183594 130.09375 95.183594 131.773438 94.871094 C 135.839844 94.257812 139.632812 94.0625 143.742188 94.058594 C 145.167969 94.054688 146.597656 94.054688 148.070312 94.050781 C 150.28125 94.058594 150.28125 94.058594 152.535156 94.066406 C 154.007812 94.0625 155.484375 94.058594 157 94.050781 C 158.429688 94.054688 159.859375 94.054688 161.328125 94.058594 C 162.621094 94.058594 163.914062 94.058594 165.246094 94.0625 C 169.125 94.230469 172.804688 94.777344 176.621094 95.492188 C 176.613281 94.722656 176.609375 93.953125 176.601562 93.160156 C 176.546875 85.160156 176.507812 77.164062 176.480469 69.164062 C 176.46875 66.179688 176.449219 63.191406 176.429688 60.203125 C 176.398438 55.914062 176.382812 51.628906 176.371094 47.339844 C 176.359375 46 176.347656 44.660156 176.332031 43.28125 C 176.332031 42.039062 176.332031 40.792969 176.332031 39.515625 C 176.328125 38.417969 176.320312 37.324219 176.316406 36.195312 C 176.621094 33.378906 176.621094 33.378906 179.15625 29.578125 C 183.660156 28.078125 187.777344 28.078125 192.464844 28.070312 C 193.75 28.050781 193.75 28.050781 195.0625 28.023438 C 199.769531 28.011719 201.757812 28.167969 205.773438 30.84375 C 209.4375 39.859375 210.503906 49.851562 211.636719 59.445312 C 211.789062 60.667969 211.945312 61.886719 212.101562 63.148438 C 212.550781 66.742188 212.980469 70.339844 213.378906 73.945312 C 213.542969 75.292969 213.542969 75.292969 213.710938 76.667969 C 214.660156 85.132812 214.8125 93.488281 214.773438 102 C 214.769531 103.417969 214.769531 104.832031 214.765625 106.292969 C 214.757812 110.773438 214.742188 115.253906 214.726562 119.734375 C 214.722656 122.792969 214.714844 125.847656 214.710938 128.90625 C 214.695312 136.359375 214.675781 143.8125 214.648438 151.269531 C 212.765625 151.894531 212.765625 151.894531 210.84375 152.535156 C 210.863281 151.1875 210.886719 149.835938 210.90625 148.449219 C 211.226562 124.585938 211.34375 100.816406 209.179688 77.035156 C 209.105469 76.179688 209.03125 75.328125 208.953125 74.453125 C 207.734375 60.871094 206.308594 46.394531 201.972656 33.378906 C 195.277344 33.378906 188.585938 33.378906 181.691406 33.378906 C 181.273438 55.132812 180.851562 76.882812 180.421875 99.296875 C 162.015625 99.296875 143.609375 99.296875 124.648438 99.296875 C 124.648438 77.542969 124.648438 55.792969 124.648438 33.378906 C 117.535156 33.378906 110.425781 33.378906 103.097656 33.378906 C 96.652344 61.308594 93.972656 88.066406 93.921875 116.6875 C 93.910156 120.753906 93.867188 124.816406 93.828125 128.882812 C 93.761719 142.769531 94.105469 155.582031 98.027344 169.015625 C 96.773438 169.015625 95.519531 169.015625 94.226562 169.015625 C 80.972656 135.253906 88.519531 83.859375 94.144531 49.066406 C 94.347656 47.820312 94.546875 46.574219 94.75 45.289062 C 95.800781 39.371094 96.773438 34.425781 100.5625 29.578125 C 104.550781 27.585938 108.789062 28.023438 113.160156 27.992188 Z M 113.160156 27.992188 " fill-opacity="1" fill-rule="nonzero"/><path fill="#e68ab0" d="M 132.253906 195.632812 C 145.640625 195.632812 159.023438 195.632812 172.816406 195.632812 C 173 200.496094 173.183594 205.359375 173.371094 210.371094 C 173.492188 212.648438 173.492188 212.648438 173.617188 214.972656 C 173.792969 224.65625 173.792969 224.65625 170.980469 228.6875 C 164.035156 234.894531 157.394531 235.308594 148.339844 235.203125 C 142.441406 234.730469 138.96875 232.566406 134.605469 228.75 C 130.980469 222.644531 131.71875 216.761719 131.9375 209.816406 C 132.042969 205.136719 132.144531 200.457031 132.253906 195.632812 Z M 132.253906 195.632812 " fill-opacity="1" fill-rule="nonzero"/><path fill="#d07ea0" d="M 95.492188 169.015625 C 96.746094 169.015625 98.003906 169.015625 99.296875 169.015625 C 100.972656 170.777344 100.972656 170.777344 102.703125 173.132812 C 108.808594 180.613281 116.785156 183.210938 125.914062 185.492188 C 124.667969 192.128906 123.273438 198.6875 121.558594 205.21875 C 116.597656 225.15625 115.242188 243.542969 115.773438 264.085938 C 113.238281 262.816406 113.238281 262.816406 111.972656 259.015625 C 111.675781 254.160156 111.738281 249.296875 111.734375 244.4375 C 111.71875 243.121094 111.703125 241.800781 111.6875 240.445312 C 111.671875 231.578125 112.609375 223.308594 114.507812 214.648438 C 113.574219 215.121094 112.640625 215.59375 111.679688 216.078125 C 110.441406 216.679688 109.207031 217.277344 107.929688 217.894531 C 106.101562 218.800781 106.101562 218.800781 104.234375 219.722656 C 100.167969 221.121094 98.253906 221.078125 94.226562 219.71875 C 90.292969 215.929688 89.933594 212.300781 89.15625 207.042969 C 98.449219 200.140625 108.046875 194.589844 118.308594 189.296875 C 116.910156 188.582031 116.910156 188.582031 115.484375 187.855469 C 98.636719 179.019531 98.636719 179.019531 95.492188 169.015625 Z M 95.492188 169.015625 " fill-opacity="1" fill-rule="nonzero"/><path fill="#e489af" d="M 117.042969 46.054688 C 119.578125 48.589844 119.578125 48.589844 119.871094 53.394531 C 119.867188 55.4375 119.847656 57.480469 119.816406 59.523438 C 119.804688 60.59375 119.792969 61.664062 119.777344 62.769531 C 119.730469 66.070312 119.65625 69.375 119.578125 72.675781 C 119.558594 73.683594 119.542969 74.695312 119.523438 75.734375 C 119.464844 78.519531 119.371094 81.300781 119.261719 84.085938 C 119.171875 86.515625 119.171875 86.515625 119.082031 88.996094 C 118.308594 92.957031 118.308594 92.957031 115.957031 95.390625 C 112.300781 97.234375 109.679688 97.191406 105.632812 96.761719 C 104.378906 95.925781 103.125 95.085938 101.832031 94.226562 C 101.378906 91.386719 101.378906 91.386719 101.414062 87.859375 C 101.421875 86.570312 101.425781 85.28125 101.429688 83.953125 C 101.457031 82.585938 101.484375 81.214844 101.515625 79.804688 C 101.53125 78.425781 101.550781 77.042969 101.566406 75.621094 C 101.628906 71.679688 101.722656 67.742188 101.832031 63.804688 C 101.851562 62.859375 101.871094 61.914062 101.890625 60.941406 C 102.171875 49.507812 102.171875 49.507812 105.40625 46.304688 C 109.566406 44.023438 112.550781 44.976562 117.042969 46.054688 Z M 117.042969 46.054688 " fill-opacity="1" fill-rule="nonzero"/><path fill="#e389ae" d="M 200.703125 46.054688 C 203.597656 55.019531 203.667969 63.695312 203.640625 73.070312 C 203.636719 75.707031 203.664062 78.34375 203.699219 80.980469 C 203.699219 82.640625 203.699219 84.304688 203.699219 86.015625 C 203.707031 88.289062 203.707031 88.289062 203.710938 90.609375 C 203.554688 91.800781 203.398438 92.996094 203.238281 94.226562 C 198.53125 97.363281 196.128906 97.457031 190.5625 96.761719 C 185.648438 91.191406 186.058594 84.714844 185.890625 77.667969 C 185.851562 76.480469 185.8125 75.296875 185.773438 74.074219 C 185.703125 71.722656 185.640625 69.371094 185.582031 67.015625 C 185.507812 64.277344 185.359375 61.542969 185.199219 58.808594 C 185.140625 57.476562 185.078125 56.144531 185.019531 54.769531 C 184.957031 53.644531 184.894531 52.515625 184.828125 51.355469 C 185.492188 48.589844 185.492188 48.589844 188.390625 46.277344 C 192.921875 44.316406 195.957031 45.03125 200.703125 46.054688 Z M 200.703125 46.054688 " fill-opacity="1" fill-rule="nonzero"/><path fill="#d682a5" d="M 192.464844 28.070312 C 193.75 28.050781 193.75 28.050781 195.0625 28.023438 C 199.769531 28.011719 201.757812 28.167969 205.773438 30.84375 C 209.4375 39.859375 210.503906 49.851562 211.636719 59.445312 C 211.789062 60.667969 211.945312 61.886719 212.101562 63.148438 C 212.550781 66.742188 212.980469 70.339844 213.378906 73.945312 C 213.488281 74.84375 213.597656 75.742188 213.710938 76.667969 C 214.660156 85.132812 214.8125 93.488281 214.773438 102 C 214.769531 103.417969 214.769531 104.832031 214.765625 106.292969 C 214.757812 110.773438 214.742188 115.253906 214.726562 119.734375 C 214.722656 122.792969 214.714844 125.847656 214.710938 128.90625 C 214.695312 136.359375 214.675781 143.8125 214.648438 151.269531 C 212.765625 151.894531 212.765625 151.894531 210.84375 152.535156 C 210.863281 151.1875 210.886719 149.835938 210.90625 148.449219 C 211.226562 124.585938 211.34375 100.816406 209.179688 77.035156 C 209.070312 75.753906 209.070312 75.753906 208.953125 74.453125 C 207.734375 60.871094 206.308594 46.394531 201.972656 33.378906 C 194.023438 33.378906 186.074219 33.378906 177.886719 33.378906 C 178.304688 32.125 178.722656 30.871094 179.15625 29.578125 C 183.660156 28.078125 187.777344 28.078125 192.464844 28.070312 Z M 192.464844 28.070312 " fill-opacity="1" fill-rule="nonzero"/><path fill="#d581a4" d="M 94.226562 61.269531 C 94.644531 61.269531 95.0625 61.269531 95.492188 61.269531 C 95.625 67.808594 95.507812 74.234375 94.875 80.746094 C 93.925781 92.710938 93.941406 104.691406 93.921875 116.6875 C 93.910156 120.753906 93.867188 124.816406 93.828125 128.882812 C 93.761719 142.769531 94.105469 155.582031 98.027344 169.015625 C 96.773438 169.015625 95.519531 169.015625 94.226562 169.015625 C 88.769531 155.121094 88.90625 140.996094 88.917969 126.230469 C 88.917969 124.605469 88.917969 122.980469 88.921875 121.304688 C 88.976562 108.824219 89.492188 96.382812 90.265625 83.925781 C 90.3125 83.074219 90.363281 82.222656 90.414062 81.34375 C 90.558594 78.925781 90.722656 76.507812 90.886719 74.09375 C 90.980469 72.714844 91.074219 71.335938 91.167969 69.917969 C 91.667969 66.484375 92.46875 64.226562 94.226562 61.269531 Z M 94.226562 61.269531 " fill-opacity="1" fill-rule="nonzero"/><path fill="#211f20" d="M 117.042969 193.097656 C 117.878906 193.515625 118.714844 193.933594 119.578125 194.367188 C 116.722656 208.921875 116.722656 208.921875 111.570312 213.394531 C 106.988281 215.777344 103.640625 217.324219 98.417969 216.914062 C 95.492188 215.914062 95.492188 215.914062 92.957031 212.113281 C 93.132812 209.542969 93.132812 209.542969 94.226562 207.042969 C 96.328125 205.324219 96.328125 205.324219 99.019531 203.820312 C 99.980469 203.269531 100.945312 202.71875 101.933594 202.152344 C 102.945312 201.597656 103.957031 201.039062 105 200.464844 C 106.996094 199.339844 108.988281 198.214844 110.980469 197.085938 C 111.871094 196.59375 112.757812 196.101562 113.671875 195.59375 C 115.746094 194.503906 115.746094 194.503906 117.042969 193.097656 Z M 117.042969 193.097656 " fill-opacity="1" fill-rule="nonzero"/><path fill="#1d1c1d" d="M 185.492188 193.097656 C 186.328125 193.097656 187.167969 193.097656 188.027344 193.097656 C 188.027344 193.933594 188.027344 194.773438 188.027344 195.632812 C 189.117188 195.957031 190.203125 196.28125 191.324219 196.613281 C 195.832031 198.242188 199.609375 200.300781 203.714844 202.765625 C 205.058594 203.566406 206.402344 204.367188 207.785156 205.191406 C 208.792969 205.800781 209.804688 206.414062 210.84375 207.042969 C 210.152344 211.320312 209.507812 213.484375 207.042969 217.183594 C 205.269531 216.636719 203.5 216.082031 201.734375 215.519531 C 200.75 215.210938 199.761719 214.902344 198.75 214.582031 C 195.148438 213.191406 192.347656 211.972656 189.296875 209.578125 C 187.84375 205.601562 187.84375 205.601562 187 201.101562 C 186.703125 199.605469 186.40625 198.109375 186.101562 196.570312 C 185.902344 195.425781 185.699219 194.277344 185.492188 193.097656 Z M 185.492188 193.097656 " fill-opacity="1" fill-rule="nonzero"/><path fill="#e289ae" d="M 210.84375 77.746094 C 211.683594 77.746094 212.519531 77.746094 213.378906 77.746094 C 214.808594 85.726562 214.808594 93.535156 214.773438 101.628906 C 214.769531 103.761719 214.769531 103.761719 214.765625 105.9375 C 214.757812 110.457031 214.742188 114.976562 214.726562 119.5 C 214.722656 122.574219 214.714844 125.644531 214.710938 128.71875 C 214.695312 136.234375 214.675781 143.75 214.648438 151.269531 C 212.765625 151.894531 212.765625 151.894531 210.84375 152.535156 C 210.84375 127.855469 210.84375 103.175781 210.84375 77.746094 Z M 210.84375 77.746094 " fill-opacity="1" fill-rule="nonzero"/><path fill="#c27796" d="M 100.5625 29.578125 C 101.398438 29.996094 102.238281 30.414062 103.097656 30.84375 C 102.953125 31.554688 102.804688 32.261719 102.652344 32.992188 C 101.976562 36.261719 101.308594 39.535156 100.644531 42.808594 C 100.410156 43.921875 100.179688 45.035156 99.941406 46.183594 C 98.496094 53.316406 97.460938 60.359375 96.761719 67.605469 C 94.324219 64.875 93.015625 63.273438 92.730469 59.570312 C 95.675781 34.464844 95.675781 34.464844 100.5625 29.578125 Z M 100.5625 29.578125 " fill-opacity="1" fill-rule="nonzero"/><path fill="#d581a4" d="M 121.558594 115.773438 C 124.648438 117.042969 124.648438 117.042969 126.3125 120.289062 C 126.742188 121.820312 126.742188 121.820312 127.183594 123.378906 C 125.042969 125.996094 125.042969 125.996094 122.113281 128.449219 C 118.625 128.132812 118.625 128.132812 115.773438 127.183594 C 114.089844 120.292969 114.089844 120.292969 115.933594 117.121094 C 118.308594 115.773438 118.308594 115.773438 121.558594 115.773438 Z M 121.558594 115.773438 " fill-opacity="1" fill-rule="nonzero"/><path fill="#b06d89" d="M 185.097656 116.25 C 186.0625 116.511719 187.03125 116.773438 188.027344 117.042969 C 188.445312 119.96875 188.863281 122.898438 189.296875 125.914062 C 186.382812 127.683594 184.886719 128.546875 181.453125 128.054688 C 179.15625 127.183594 179.15625 127.183594 177.886719 125.914062 C 177.570312 122.191406 177.570312 122.191406 177.886719 118.308594 C 181.691406 115.773438 181.691406 115.773438 185.097656 116.25 Z M 185.097656 116.25 " fill-opacity="1" fill-rule="nonzero"/><path fill="#e288ad" d="M 113.238281 233.660156 C 113.65625 233.660156 114.074219 233.660156 114.507812 233.660156 C 115.328125 243.820312 115.984375 253.890625 115.773438 264.085938 C 113.238281 262.816406 113.238281 262.816406 111.972656 259.015625 C 111.855469 257.152344 111.804688 255.285156 111.804688 253.417969 C 111.800781 252.351562 111.800781 251.28125 111.796875 250.179688 C 111.804688 249.070312 111.808594 247.957031 111.8125 246.8125 C 111.808594 245.691406 111.804688 244.570312 111.796875 243.417969 C 111.800781 242.351562 111.800781 241.285156 111.804688 240.1875 C 111.804688 239.210938 111.804688 238.230469 111.808594 237.222656 C 111.972656 234.929688 111.972656 234.929688 113.238281 233.660156 Z M 113.238281 233.660156 " fill-opacity="1" fill-rule="nonzero"/><path fill="#bc7492" d="M 157.605469 94.226562 C 164.101562 94.09375 170.21875 94.179688 176.621094 95.492188 C 176.203125 96.746094 175.78125 98.003906 175.351562 99.296875 C 166.566406 98.878906 157.78125 98.460938 148.730469 98.027344 C 148.730469 97.609375 148.730469 97.191406 148.730469 96.761719 C 153.125 96.132812 153.125 96.132812 157.605469 95.492188 C 157.605469 95.074219 157.605469 94.65625 157.605469 94.226562 Z M 157.605469 94.226562 " fill-opacity="1" fill-rule="nonzero"/><path fill="#c37797" d="M 212.113281 151.269531 C 212.949219 151.269531 213.785156 151.269531 214.648438 151.269531 C 214.289062 153.75 213.917969 156.234375 213.539062 158.714844 C 213.332031 160.097656 213.125 161.480469 212.914062 162.902344 C 212.113281 166.480469 212.113281 166.480469 209.578125 169.015625 C 208.324219 169.433594 207.066406 169.851562 205.773438 170.28125 C 206.347656 168.0625 206.929688 165.84375 207.519531 163.625 C 207.839844 162.390625 208.164062 161.15625 208.496094 159.882812 C 209.445312 156.769531 210.554688 154.113281 212.113281 151.269531 Z M 212.113281 151.269531 " fill-opacity="1" fill-rule="nonzero"/><path fill="#d481a4" d="M 136.054688 94.226562 C 139.515625 94.191406 142.976562 94.164062 146.433594 94.144531 C 147.410156 94.136719 148.382812 94.125 149.386719 94.113281 C 154.417969 94.09375 159.03125 94.242188 163.945312 95.492188 C 163.945312 95.910156 163.945312 96.328125 163.945312 96.761719 C 160.246094 97.078125 156.550781 97.363281 152.851562 97.632812 C 151.804688 97.722656 150.761719 97.816406 149.683594 97.910156 C 141.859375 98.449219 141.859375 98.449219 137.859375 96.152344 C 137.265625 95.515625 136.667969 94.878906 136.054688 94.226562 Z M 136.054688 94.226562 " fill-opacity="1" fill-rule="nonzero"/><path fill="#8a586d" d="M 123.378906 117.042969 C 122.542969 117.042969 121.707031 117.042969 120.84375 117.042969 C 121.683594 118.296875 122.519531 119.550781 123.378906 120.84375 C 123.378906 122.101562 123.378906 123.355469 123.378906 124.648438 C 122.386719 124.414062 121.394531 124.175781 120.371094 123.933594 C 117.078125 123.050781 117.078125 123.050781 114.507812 124.648438 C 114.980469 120.925781 114.980469 120.925781 115.773438 117.042969 C 118.933594 115.464844 120.097656 116.058594 123.378906 117.042969 Z M 123.378906 117.042969 " fill-opacity="1" fill-rule="nonzero"/><path fill="#222222" d="M 238.730469 232.394531 C 239.152344 232.394531 239.570312 232.394531 240 232.394531 C 240 236.578125 240 240.761719 240 245.070312 C 237.910156 243.398438 235.816406 241.722656 233.660156 240 C 235.121094 236.871094 236.257812 234.867188 238.730469 232.394531 Z M 238.730469 232.394531 " fill-opacity="1" fill-rule="nonzero"/><path fill="#c97b9b" d="M 158.875 129.71875 C 158.453125 130.554688 158.035156 131.390625 157.605469 132.253906 C 158.441406 133.089844 159.277344 133.925781 160.140625 134.789062 C 157.625 134.746094 155.105469 134.707031 152.589844 134.664062 C 149.742188 134.683594 149.742188 134.683594 146.195312 136.054688 C 146.195312 135.21875 146.195312 134.382812 146.195312 133.519531 C 147.035156 133.519531 147.871094 133.519531 148.730469 133.519531 C 148.3125 132.265625 147.894531 131.011719 147.464844 129.71875 C 156.019531 128.292969 156.019531 128.292969 158.875 129.71875 Z M 158.875 129.71875 " fill-opacity="1" fill-rule="nonzero"/><path fill="#dc85a9" d="M 109.4375 212.113281 C 110.273438 212.53125 111.109375 212.949219 111.972656 213.378906 C 108.066406 218.035156 105.320312 219.171875 99.296875 219.71875 C 99.296875 218.882812 99.296875 218.046875 99.296875 217.183594 C 100.925781 216.300781 102.566406 215.429688 104.207031 214.570312 C 105.121094 214.082031 106.03125 213.597656 106.972656 213.097656 C 107.785156 212.773438 108.597656 212.449219 109.4375 212.113281 Z M 109.4375 212.113281 " fill-opacity="1" fill-rule="nonzero"/><path fill="#d07fa1" d="M 100.5625 29.578125 C 101.398438 29.996094 102.238281 30.414062 103.097656 30.84375 C 102.261719 33.355469 101.425781 35.863281 100.5625 38.449219 C 99.726562 38.449219 98.890625 38.449219 98.027344 38.449219 C 97.871094 35.441406 97.871094 35.441406 98.027344 32.113281 C 98.863281 31.277344 99.703125 30.4375 100.5625 29.578125 Z M 100.5625 29.578125 " fill-opacity="1" fill-rule="nonzero"/><path fill="#cc7c9d" d="M 212.113281 151.269531 C 212.949219 151.269531 213.785156 151.269531 214.648438 151.269531 C 214.230469 154.195312 213.8125 157.125 213.378906 160.140625 C 212.125 160.140625 210.871094 160.140625 209.578125 160.140625 C 210.6875 152.695312 210.6875 152.695312 212.113281 151.269531 Z M 212.113281 151.269531 " fill-opacity="1" fill-rule="nonzero"/><path fill="#d07fa0" d="M 94.226562 151.269531 C 94.226562 154.613281 94.226562 157.960938 94.226562 161.410156 C 93.390625 161.410156 92.550781 161.410156 91.691406 161.410156 C 91.273438 158.480469 90.855469 155.550781 90.421875 152.535156 C 92.957031 151.269531 92.957031 151.269531 94.226562 151.269531 Z M 94.226562 151.269531 " fill-opacity="1" fill-rule="nonzero"/></svg>